<?xml version="1.0" encoding="UTF-8" standalone="no"?>
<svg
   xmlns:dc="http://purl.org/dc/elements/1.1/"
   xmlns:cc="http://creativecommons.org/ns#"
   xmlns:rdf="http://www.w3.org/1999/02/22-rdf-syntax-ns#"
   xmlns:svg="http://www.w3.org/2000/svg"
   xmlns="http://www.w3.org/2000/svg"
   xmlns:xlink="http://www.w3.org/1999/xlink"
   xmlns:sodipodi="http://sodipodi.sourceforge.net/DTD/sodipodi-0.dtd"
   xmlns:inkscape="http://www.inkscape.org/namespaces/inkscape"
   inkscape:export-ydpi="90"
   inkscape:export-xdpi="90"
   inkscape:export-filename="C:\Users\Fred\Documents\Trains\EXLogo.png"
   sodipodi:docname="EX Logo7_shadow_b.svg"
   inkscape:version="1.0 (4035a4fb49, 2020-05-01)"
   id="svg1147"
   version="1.1"
   viewBox="0 0 142.6445 125.5591"
   height="125.5591mm"
   width="142.6445mm">
  <defs
     id="defs1141">
    <linearGradient
       y2="303.31201"
       x2="732.12567"
       y1="562.81201"
       x1="473.75183"
       gradientTransform="matrix(1.0666667,0,0,1.0666667,-198.46006,-0.72489077)"
       gradientUnits="userSpaceOnUse"
       id="linearGradient1957"
       xlink:href="#linearGradient4117-9"
       inkscape:collect="always" />
    <linearGradient
       inkscape:collect="always"
       id="linearGradient4117-9">
      <stop
         style="stop-color:#000000;stop-opacity:1;"
         offset="0"
         id="stop4119-0" />
      <stop
         style="stop-color:#000000;stop-opacity:0;"
         offset="1"
         id="stop4121-4" />
    </linearGradient>
    <linearGradient
       y2="682.74451"
       x2="295.05127"
       y1="762.96503"
       x1="316.88388"
       gradientTransform="matrix(1.0666667,0,0,1.0666667,-139.34848,-139.71366)"
       gradientUnits="userSpaceOnUse"
       id="linearGradient1959"
       xlink:href="#linearGradient4117-9"
       inkscape:collect="always" />
    <linearGradient
       y2="686.96478"
       x2="276.33813"
       y1="762.80194"
       x1="270.14645"
       gradientTransform="matrix(1.0666667,0,0,1.0666667,-139.34848,-139.71366)"
       gradientUnits="userSpaceOnUse"
       id="linearGradient1961"
       xlink:href="#linearGradient4117-9"
       inkscape:collect="always" />
    <filter
       style="color-interpolation-filters:sRGB"
       inkscape:label="Drop Shadow"
       id="filter1720">
      <feFlood
         flood-opacity="0.498039"
         flood-color="rgb(0,0,0)"
         result="flood"
         id="feFlood1710" />
      <feComposite
         in="flood"
         in2="SourceGraphic"
         operator="in"
         result="composite1"
         id="feComposite1712" />
      <feGaussianBlur
         in="composite1"
         stdDeviation="3.7"
         result="blur"
         id="feGaussianBlur1714" />
      <feOffset
         dx="4.5"
         dy="4.5"
         result="offset"
         id="feOffset1716" />
      <feComposite
         in="SourceGraphic"
         in2="offset"
         operator="over"
         result="composite2"
         id="feComposite1718" />
    </filter>
    <filter
       id="filter1720-9"
       inkscape:label="Drop Shadow"
       style="color-interpolation-filters:sRGB">
      <feFlood
         id="feFlood1710-1"
         result="flood"
         flood-color="rgb(0,0,0)"
         flood-opacity="0.498039" />
      <feComposite
         id="feComposite1712-4"
         result="composite1"
         operator="in"
         in2="SourceGraphic"
         in="flood" />
      <feGaussianBlur
         id="feGaussianBlur1714-8"
         result="blur"
         stdDeviation="3.7"
         in="composite1" />
      <feOffset
         id="feOffset1716-6"
         result="offset"
         dy="4.5"
         dx="4.5" />
      <feComposite
         id="feComposite1718-6"
         result="composite2"
         operator="over"
         in2="offset"
         in="SourceGraphic" />
    </filter>
  </defs>
  <sodipodi:namedview
     inkscape:guide-bbox="true"
     showguides="true"
     fit-margin-bottom="0"
     fit-margin-right="0"
     fit-margin-left="0"
     fit-margin-top="0"
     units="px"
     inkscape:window-maximized="1"
     inkscape:window-y="-8"
     inkscape:window-x="-8"
     inkscape:window-height="745"
     inkscape:window-width="1366"
     showgrid="false"
     inkscape:document-rotation="0"
     inkscape:current-layer="layer1"
     inkscape:document-units="mm"
     inkscape:cy="237.27705"
     inkscape:cx="269.5644"
     inkscape:zoom="1.1695189"
     inkscape:pageshadow="2"
     inkscape:pageopacity="0.0"
     borderopacity="1.0"
     bordercolor="#666666"
     pagecolor="#ffffff"
     id="base">
    <sodipodi:guide
       id="guide892"
       orientation="1,0"
       position="13.80019,16.741205" />
    <sodipodi:guide
       id="guide894"
       orientation="1,0"
       position="129.17883,56.105681" />
    <sodipodi:guide
       id="guide923"
       orientation="0,-1"
       position="89.135652,115.37863" />
    <sodipodi:guide
       id="guide925"
       orientation="0,-1"
       position="136.41827,23.754416" />
  </sodipodi:namedview>
  <metadata
     id="metadata1144">
    <rdf:RDF>
      <cc:Work
         rdf:about="">
        <dc:format>image/svg+xml</dc:format>
        <dc:type
           rdf:resource="http://purl.org/dc/dcmitype/StillImage" />
        <dc:title></dc:title>
      </cc:Work>
    </rdf:RDF>
  </metadata>
  <g
     transform="translate(-34.48468,-27.00163)"
     id="layer1"
     inkscape:groupmode="layer"
     inkscape:label="Layer 1">
    <rect
       ry="19.654762"
       y="27.242945"
       x="34.725994"
       height="125.07648"
       width="142.16187"
       id="rect1790"
       style="font-variation-settings:'wght' 700;fill:#ffffff;stroke:#000000;stroke-width:0.482629;image-rendering:auto" />
    <g
       transform="translate(2.2052173,5.671304)"
       id="g921">
      <g
         aria-label="DCC++EX"
         id="text9460-2"
         style="font-style:normal;font-variant:normal;font-weight:normal;font-stretch:normal;font-size:48.5109px;line-height:125%;font-family:Righteous;-inkscape-font-specification:'Righteous, Normal';font-variant-ligatures:normal;font-variant-caps:normal;font-variant-numeric:normal;font-variant-east-asian:normal;text-align:start;letter-spacing:0px;word-spacing:0px;writing-mode:lr-tb;text-anchor:start;fill:#000000;fill-opacity:1;stroke:none;stroke-width:1.14183;stroke-linecap:butt;stroke-linejoin:miter;stroke-miterlimit:4;stroke-dasharray:none;stroke-opacity:1"
         transform="matrix(0.48801808,0,0,0.48801808,12.916958,-363.83564)">
        <path
           d="m 102.82434,983.64152 q 0,3.10299 -1.0896,5.70856 -1.06591,2.60557 -2.960866,4.50052 -1.894957,1.87127 -4.500523,2.93719 -2.605566,1.06591 -5.661184,1.06591 H 71.98392 q -0.663235,0 -1.231722,-0.23687 -0.568488,-0.23687 -0.994853,-0.63955 -0.402678,-0.42636 -0.639548,-0.99485 -0.23687,-0.56849 -0.23687,-1.23172 v -27.76112 q 0,-0.63955 0.23687,-1.20804 0.23687,-0.56849 0.639548,-0.99485 0.426365,-0.42637 0.994853,-0.66324 0.568487,-0.23687 1.231722,-0.23687 h 16.628247 q 3.055618,0 5.661184,1.06592 2.605566,1.06591 4.500523,2.96087 1.894956,1.87127 2.960866,4.50052 1.0896,2.60557 1.0896,5.68487 z m -6.158606,-5.54275 q 0,-1.80021 -0.592174,-3.29249 -0.568487,-1.49227 -1.6344,-2.5345 -1.065914,-1.06591 -2.558192,-1.6344 -1.468592,-0.59217 -3.268801,-0.59217 H 75.039538 v 21.64988 h 13.572629 q 1.800209,0 3.268801,-0.56849 1.492278,-0.59217 2.558192,-1.6344 1.065913,-1.06591 1.6344,-2.5345 0.592174,-1.49228 0.592174,-3.31618 z"
           style="font-style:normal;font-variant:normal;font-weight:normal;font-stretch:normal;font-size:48.5109px;font-family:Audiowide;-inkscape-font-specification:'Audiowide, Normal';font-variant-ligatures:normal;font-variant-caps:normal;font-variant-numeric:normal;font-variant-east-asian:normal;stroke-width:1.14183;stroke-miterlimit:4;stroke-dasharray:none"
           id="path1963" />
        <path
           d="m 139.32595,997.8537 h -22.21837 q -0.85273,0 -1.84758,-0.1895 -0.97117,-0.21318 -1.94233,-0.63954 -0.94748,-0.42637 -1.8239,-1.08961 -0.87641,-0.68692 -1.56334,-1.6344 -0.66323,-0.97116 -1.06591,-2.22657 -0.40268,-1.2791 -0.40268,-2.86612 v -16.67562 q 0,-0.85273 0.1895,-1.8239 0.21318,-0.99485 0.63955,-1.94233 0.42636,-0.97117 1.11328,-1.84758 0.68692,-0.87642 1.6344,-1.53966 0.97117,-0.68692 2.22658,-1.0896 1.25541,-0.40268 2.84243,-0.40268 h 22.21837 v 6.15862 h -22.21837 q -1.20803,0 -1.84758,0.63954 -0.63955,0.63955 -0.63955,1.89496 v 16.62825 q 0,1.18435 0.63955,1.84758 0.66324,0.63955 1.84758,0.63955 h 22.21837 z"
           style="font-style:normal;font-variant:normal;font-weight:normal;font-stretch:normal;font-size:48.5109px;font-family:Audiowide;-inkscape-font-specification:'Audiowide, Normal';font-variant-ligatures:normal;font-variant-caps:normal;font-variant-numeric:normal;font-variant-east-asian:normal;stroke-width:1.14183;stroke-miterlimit:4;stroke-dasharray:none"
           id="path1965" />
        <path
           d="m 175.33014,997.8537 h -22.21837 q -0.85273,0 -1.84758,-0.1895 -0.97117,-0.21318 -1.94234,-0.63954 -0.94747,-0.42637 -1.82389,-1.08961 -0.87642,-0.68692 -1.56334,-1.6344 -0.66324,-0.97116 -1.06591,-2.22657 -0.40268,-1.2791 -0.40268,-2.86612 v -16.67562 q 0,-0.85273 0.18949,-1.8239 0.21319,-0.99485 0.63955,-1.94233 0.42637,-0.97117 1.11329,-1.84758 0.68692,-0.87642 1.6344,-1.53966 0.97116,-0.68692 2.22657,-1.0896 1.25541,-0.40268 2.84244,-0.40268 h 22.21837 v 6.15862 h -22.21837 q -1.20804,0 -1.84758,0.63954 -0.63955,0.63955 -0.63955,1.89496 v 16.62825 q 0,1.18435 0.63955,1.84758 0.66323,0.63955 1.84758,0.63955 h 22.21837 z"
           style="font-style:normal;font-variant:normal;font-weight:normal;font-stretch:normal;font-size:48.5109px;font-family:Audiowide;-inkscape-font-specification:'Audiowide, Normal';font-variant-ligatures:normal;font-variant-caps:normal;font-variant-numeric:normal;font-variant-east-asian:normal;stroke-width:1.14183;stroke-miterlimit:4;stroke-dasharray:none"
           id="path1967" />
        <path
           d="m 201.81216,983.64152 h -8.33781 v 8.33781 h -5.51907 v -8.33781 h -8.36149 v -5.54275 h 8.36149 v -8.33781 h 5.51907 v 8.33781 h 8.33781 z"
           style="fill:#77e8fd;fill-opacity:1;stroke-width:1.14183"
           id="path1969" />
        <path
           d="m 227.96256,983.64152 h -8.33781 v 8.33781 h -5.51906 v -8.33781 h -8.3615 v -5.54275 h 8.3615 v -8.33781 h 5.51906 v 8.33781 h 8.33781 z"
           style="fill:#77e8fd;fill-opacity:1;stroke-width:1.14183"
           id="path1971" />
        <path
           id="path1973"
           style="fill:#ffffff;fill-opacity:1;stroke:#000000;stroke-width:1.14183;stroke-miterlimit:4;stroke-dasharray:none;stroke-opacity:1"
           d="m 236.4668,963.88672 c -0.44215,0 -0.85344,0.0784 -1.23242,0.23633 -0.379,0.15791 -0.70991,0.37981 -0.99415,0.66406 -0.26845,0.28424 -0.48271,0.61515 -0.64062,0.99414 -0.15787,0.37899 -0.23633,0.78261 -0.23633,1.20898 v 22.2168 c 0,1.59492 0.28503,2.94539 0.85352,4.05078 0.58428,1.0896 1.30156,1.98293 2.15429,2.67774 0.86853,0.67903 1.80772,1.16871 2.81836,1.46875 1.01065,0.30003 1.94219,0.44922 2.79493,0.44922 h 22.21874 v -6.15821 H 242.0332 c -0.82115,0 -1.44472,-0.21425 -1.87109,-0.64062 -0.42637,-0.42637 -0.64063,-1.04231 -0.64063,-1.84766 v -5.23437 H 260.625 v -6.20508 h -21.10352 v -7.72266 h 24.68164 v -6.1582 z" />
        <path
           d="m 285.68769,976.01432 10.37489,-12.12773 h 8.40887 l -14.61485,17.03093 14.52011,16.93618 h -8.3615 l -10.32752,-12.03298 -10.28014,12.03298 h -8.38518 l 14.49642,-16.93618 -14.5438,-17.03093 h 8.33781 z"
           style="fill:#ffffff;fill-opacity:1;stroke:#000000;stroke-width:1.14183;stroke-miterlimit:4;stroke-dasharray:none;stroke-opacity:1"
           id="path1975" />
      </g>
      <g
         style="filter:url(#filter1720)"
         transform="matrix(0.28786052,0,0,0.28786052,53.008633,-117.31625)"
         id="g4554-8-5-2">
        <g
           transform="translate(11.733333,32)"
           id="g4570-0-8-4">
          <rect
             ry="7.7333331"
             transform="rotate(45)"
             y="259.63745"
             x="496.43747"
             height="127.40762"
             width="127.40762"
             id="rect4055-6-4-3-1"
             style="fill:url(#linearGradient1957);fill-opacity:1;stroke:#000000;stroke-width:2.16427;stroke-miterlimit:4;stroke-dasharray:none;stroke-opacity:1" />
          <path
             sodipodi:nodetypes="cc"
             inkscape:connector-curvature="0"
             id="path4149-0-7-4-3"
             d="m 148.19487,556.74782 c 52.4538,56.01263 54.22373,104.44584 46.44732,130.97119"
             style="fill:none;stroke:url(#linearGradient1959);stroke-width:2.62187;stroke-miterlimit:4;stroke-dasharray:none;stroke-opacity:1" />
          <path
             sodipodi:nodetypes="cc"
             inkscape:connector-curvature="0"
             id="path4151-5-0-0-5"
             d="m 142.1609,560.42754 c 34.63919,59.72844 22.09212,100.67641 -5.09672,123.63185"
             style="fill:none;stroke:url(#linearGradient1961);stroke-width:2.62187;stroke-miterlimit:4;stroke-dasharray:none;stroke-opacity:1" />
          <path
             sodipodi:nodetypes="cccccc"
             inkscape:connector-curvature="0"
             id="rect4153-9-8-0-7"
             d="m 136.94592,675.60639 65.36774,4.67455 -12.16572,11.93799 -50.83231,-4.5298 -7.16326,-7.81036 z"
             style="fill:none;stroke:#000000;stroke-width:1.38667;stroke-miterlimit:4;stroke-dasharray:none;stroke-opacity:1" />
          <path
             sodipodi:nodetypes="cc"
             inkscape:connector-curvature="0"
             id="path4156-4-3-8-3"
             d="m 137.64881,685.25547 54.49437,4.71404"
             style="fill:#000000;fill-opacity:1;stroke:#000000;stroke-width:1.06667;stroke-miterlimit:4;stroke-dasharray:none;stroke-opacity:1" />
          <path
             sodipodi:nodetypes="ccccccc"
             inkscape:connector-curvature="0"
             id="rect4160-1-9-0-9-1"
             d="m 147.64501,657.70181 57.20305,3.475 0.46678,7.44102 -0.3275,3.15495 -61.74068,-5.13259 0.18804,-2.53175 z"
             style="fill:none;stroke:#000000;stroke-width:1.38667;stroke-miterlimit:4;stroke-dasharray:none;stroke-opacity:1" />
          <path
             sodipodi:nodetypes="cc"
             inkscape:connector-curvature="0"
             id="path4187-0-7-7-3"
             d="m 143.76644,663.74832 61.70269,5.09118"
             style="fill:none;stroke:#000000;stroke-width:1.06667;stroke-miterlimit:4;stroke-dasharray:none;stroke-opacity:1" />
          <path
             sodipodi:nodetypes="ccccccc"
             inkscape:connector-curvature="0"
             id="rect4160-5-9-2-8-4"
             d="m 154.83168,640.42586 47.30154,2.71405 1.30227,7.22571 0.10432,2.93317 -50.87455,-3.44502 0.0808,-3.0545 z"
             style="fill:none;stroke:#000000;stroke-width:1.2704;stroke-miterlimit:4;stroke-dasharray:none;stroke-opacity:1" />
          <path
             sodipodi:nodetypes="cc"
             inkscape:connector-curvature="0"
             id="path4205-1-2-9-1"
             d="m 153.06513,646.89998 50.30696,3.30931"
             style="fill:none;stroke:#000000;stroke-width:0.853333;stroke-miterlimit:4;stroke-dasharray:none;stroke-opacity:1" />
          <path
             sodipodi:nodetypes="ccccccc"
             inkscape:connector-curvature="0"
             id="path4223-2-19-3-0"
             d="m 156.87697,634.63983 44.16927,2.06306 -0.3533,-2.96511 -1.89426,-5.24964 -41.08903,-0.81255 -0.7806,5.06167 z"
             style="fill:none;stroke:#000000;stroke-width:1.17333;stroke-miterlimit:4;stroke-dasharray:none;stroke-opacity:1" />
          <path
             sodipodi:nodetypes="cc"
             inkscape:connector-curvature="0"
             id="path4225-8-5-2-8"
             d="m 157.13734,632.43677 43.81024,2.08366"
             style="fill:none;stroke:#000000;stroke-width:0.853333;stroke-miterlimit:4;stroke-dasharray:none;stroke-opacity:1" />
          <path
             sodipodi:nodetypes="cccccccccccccccccccccccccccccc"
             inkscape:connector-curvature="0"
             id="path4263-8-3-3-9"
             d="m 142.98197,563.57739 10.8309,-8.29952 3.49247,4.83304 -12.82628,7.97426 1.45593,3.32228 13.62499,-9.05904 2.1759,2.90267 -14.64009,9.90623 1.0921,3.64921 15.53793,-11.1389 2.87599,4.01322 -17.05882,10.9721 1.1608,2.24969 18.07392,-10.72185 2.66506,4.55246 -19.62676,9.60713 1.14904,3.93992 21.82274,-8.78731 4.25464,6.3851 -24.95682,7.07855 1.54102,4.98557 26.76084,-6.45 4.82916,8.62466 -30.44931,5.14821 0.82914,3.50681 32.83127,-4.2837 3.82586,6.94455 -36.13952,1.38101 0.46903,4.27186 38.07849,-0.82065"
             style="fill:none;stroke:#000000;stroke-width:1.46192;stroke-miterlimit:4;stroke-dasharray:none;stroke-opacity:1" />
          <path
             inkscape:connector-curvature="0"
             id="path4550-8-8-5"
             d="m 143.31956,564.20074 -1.9108,-3.04217"
             style="fill:#aaaaaa;fill-opacity:1;stroke:#000000;stroke-width:1.7386;stroke-miterlimit:4;stroke-dasharray:none;stroke-opacity:1" />
          <path
             sodipodi:nodetypes="cc"
             inkscape:connector-curvature="0"
             id="path4552-4-3-5"
             d="m 196.0033,619.94721 2.87418,9.20719"
             style="fill:#aaaaaa;fill-opacity:1;stroke:#000000;stroke-width:1.38667;stroke-miterlimit:4;stroke-dasharray:none;stroke-opacity:1" />
        </g>
      </g>
      <path
         inkscape:connector-curvature="0"
         id="path4365-76-7-9"
         d="m 50.290636,101.37677 107.554304,0.43424"
         style="fill:#ffffff;fill-opacity:1;stroke:#000000;stroke-width:0.644838;stroke-miterlimit:4;stroke-dasharray:none;stroke-opacity:1" />
    </g>
  </g>
</svg>
