<?xml version="1.0" encoding="UTF-8" standalone="no"?>
<svg
   xmlns:dc="http://purl.org/dc/elements/1.1/"
   xmlns:cc="http://creativecommons.org/ns#"
   xmlns:rdf="http://www.w3.org/1999/02/22-rdf-syntax-ns#"
   xmlns:svg="http://www.w3.org/2000/svg"
   xmlns="http://www.w3.org/2000/svg"
   xmlns:sodipodi="http://sodipodi.sourceforge.net/DTD/sodipodi-0.dtd"
   xmlns:inkscape="http://www.inkscape.org/namespaces/inkscape"
   width="1285.76"
   height="645.76001"
   viewBox="0 0 1285.76 645.76001"
   fill="none"
   version="1.1"
   id="svg192"
   sodipodi:docname="EX_LOGO_MEDIA.svg"
   inkscape:export-filename="C:\Users\Fred\Documents\Trains\Inkscape files\EX_Media_1280x640.png"
   inkscape:export-xdpi="96"
   inkscape:export-ydpi="96"
   inkscape:version="1.0 (4035a4fb49, 2020-05-01)">
  <metadata
     id="metadata196">
    <rdf:RDF>
      <cc:Work
         rdf:about="">
        <dc:format>image/svg+xml</dc:format>
        <dc:type
           rdf:resource="http://purl.org/dc/dcmitype/StillImage" />
        <dc:title></dc:title>
      </cc:Work>
    </rdf:RDF>
  </metadata>
  <sodipodi:namedview
     fit-margin-bottom="0"
     fit-margin-right="0"
     fit-margin-left="0"
     fit-margin-top="0"
     inkscape:document-rotation="0"
     pagecolor="#ffffff"
     bordercolor="#666666"
     borderopacity="1"
     objecttolerance="10"
     gridtolerance="10"
     guidetolerance="10"
     inkscape:pageopacity="0"
     inkscape:pageshadow="2"
     inkscape:window-width="1366"
     inkscape:window-height="745"
     id="namedview194"
     showgrid="false"
     inkscape:zoom="0.5812808"
     inkscape:cx="629.39419"
     inkscape:cy="266.56368"
     inkscape:window-x="-8"
     inkscape:window-y="-8"
     inkscape:window-maximized="1"
     inkscape:current-layer="svg192" />
  <mask
     id="mask0"
     mask-type="alpha"
     maskUnits="userSpaceOnUse"
     x="406"
     y="21"
     width="599"
     height="599">
    <rect
       x="406.51001"
       y="320.14801"
       width="422.702"
       height="422.702"
       rx="56.537102"
       transform="rotate(-45,406.51,320.148)"
       fill="#ffffff"
       id="rect156" />
  </mask>
  <defs
     id="defs190">
    <linearGradient
       id="paint0_linear"
       x1="707.41602"
       y1="-4.4348102"
       x2="707.41602"
       y2="597.09998"
       gradientUnits="userSpaceOnUse">
      <stop
         stop-color="#D3D3D3"
         id="stop185" />
      <stop
         offset="1"
         stop-color="white"
         id="stop187" />
    </linearGradient>
  </defs>
  <rect
     rx="41.169617"
     y="6.9177594"
     x="2.8698058"
     height="634.27863"
     width="1274.2786"
     id="rect85"
     style="fill:#ffffff;stroke:#000000;stroke-width:5.72136" />
  <rect
     x="279.57501"
     y="472.73322"
     width="147.17485"
     height="147.17485"
     rx="21.456301"
     transform="rotate(-45)"
     fill="#ffffff"
     stroke="#00353d"
     stroke-width="4.83674"
     stroke-miterlimit="16"
     stroke-linejoin="round"
     id="rect154" />
  <g
     transform="matrix(0.33673369,0,0,0.33673369,398.37193,28.863724)"
     mask="url(#mask0)"
     id="g167">
    <path
       d="m 558.03,10.9856 c 7.305,6.359 311.428,260.2244 19.227,487.4164 l 94.853,87.162 49.99,11.536 61.722,-42.127 C 1014.79,279.491 624.481,0.449243 615.806,-4.43481 Z"
       fill="url(#paint0_linear)"
       id="path159"
       style="fill:url(#paint0_linear)" />
    <path
       d="m 579.281,51.6391 91.645,-38.7324 33.869,26.0143 -101.607,42.7791 16.603,28.3269 111.567,-45.0917 30.549,29.4829 -130.163,47.4038 13.282,29.483 146.765,-45.67 25.235,34.108 -158.054,45.092 2.656,39.888 186.611,-39.888 40.51,57.809 -223.136,26.592 -21.915,47.404 262.981,-19.077 v 71.684 l -284.896,-3.469 -23.908,41.045 284.233,48.56 -44.495,83.246 -279.583,-83.246"
       stroke="#00353d"
       stroke-width="10.2598"
       id="path161" />
    <path
       d="M 570.647,491.57 C 862.849,264.379 565.999,11.7512 558.694,5.39221 M 616.47,-10.0282 c 8.675,4.88406 398.99,283.9262 168.016,559.4082 L 736.2,597.1"
       stroke="#ffffff"
       stroke-width="20.5195"
       id="path163" />
    <path
       d="M 570.647,491.57 C 862.849,264.379 565.999,11.7512 558.694,5.39221 M 616.47,-10.0282 c 8.675,4.88406 398.99,283.9262 168.016,559.4082 l -44.441,45.157"
       stroke="#00353d"
       stroke-width="10.2598"
       id="path165" />
  </g>
  <path
     style="stroke-width:0.336734"
     d="m 467.61448,310.00335 c 0,4.21995 -0.74082,8.10182 -2.22278,11.64527 -1.44964,3.54344 -3.46297,6.60368 -6.03999,9.1807 -2.57703,2.54504 -5.63726,4.5422 -9.18071,5.99184 -3.54345,1.44964 -7.39299,2.17429 -11.54862,2.17429 h -33.92053 c -0.90197,0 -1.73953,-0.16096 -2.51264,-0.48321 -0.77312,-0.32192 -1.4496,-0.75698 -2.02944,-1.30451 -0.54763,-0.57985 -0.98251,-1.25635 -1.30464,-2.02949 -0.32213,-0.77314 -0.4832,-1.6106 -0.4832,-2.51271 v -56.63086 c 0,-0.86978 0.16107,-1.69141 0.4832,-2.46455 0.32213,-0.77314 0.75701,-1.44964 1.30464,-2.0295 0.57984,-0.57985 1.25632,-1.03074 2.02944,-1.35266 0.77311,-0.32225 1.61067,-0.48321 2.51264,-0.48321 h 33.92053 c 4.15563,0 8.00517,0.72465 11.54862,2.17429 3.54345,1.44964 6.60368,3.46297 9.18071,6.03999 2.57702,2.5447 4.59035,5.60493 6.03999,9.18071 1.48196,3.54345 2.22278,7.40915 2.22278,11.59677 z m -12.5632,-11.30684 c 0,-2.44805 -0.40273,-4.687 -1.20786,-6.71649 -0.77314,-2.02949 -1.8847,-3.7529 -3.33434,-5.17021 -1.4493,-1.44964 -3.18887,-2.56086 -5.21836,-3.334 -1.99717,-0.80547 -4.21995,-1.20786 -6.66834,-1.20786 h -27.68725 v 44.1643 h 27.68725 c 2.44839,0 4.67117,-0.38657 6.66834,-1.15971 2.02949,-0.80513 3.76906,-1.91668 5.21836,-3.334 1.44964,-1.44964 2.5612,-3.17304 3.33434,-5.17021 0.80513,-2.02949 1.20786,-4.28426 1.20786,-6.76498 z"
     fill="#00353d"
     id="path169" />
  <path
     style="stroke-width:0.336734"
     d="m 541.97908,338.99545 h -45.32435 c -1.15971,0 -2.41607,-0.12897 -3.76872,-0.38657 -1.32101,-0.28993 -2.64168,-0.72465 -3.96235,-1.30451 -1.28868,-0.57985 -2.52887,-1.32066 -3.72057,-2.22277 -1.19204,-0.9341 -2.25511,-2.04566 -3.18921,-3.334 -0.9021,-1.32101 -1.62676,-2.83497 -2.17428,-4.54221 -0.54787,-1.73956 -0.82163,-3.68824 -0.82163,-5.8467 v -34.01718 c 0,-1.15971 0.12896,-2.3999 0.38657,-3.7209 0.28992,-1.35266 0.72498,-2.67367 1.30484,-3.96201 0.57985,-1.32067 1.33683,-2.57703 2.27093,-3.76906 0.9341,-1.1917 2.04566,-2.23894 3.334,-3.14072 1.32067,-0.9341 2.83496,-1.67525 4.5422,-2.22278 1.70724,-0.54753 3.64009,-0.82129 5.79822,-0.82129 h 45.32435 v 12.5632 h -45.32435 c -1.64292,0 -2.89894,0.43472 -3.76872,1.3045 -0.86979,0.86979 -1.30485,2.15813 -1.30485,3.86571 v 33.92053 c 0,1.61059 0.43506,2.86695 1.30485,3.76906 0.90177,0.86978 2.15812,1.3045 3.76872,1.3045 h 45.32435 z"
     fill="#00353d"
     id="path171" />
  <path
     style="stroke-width:0.336734"
     d="m 615.32877,338.99545 h -45.32401 c -1.15972,0 -2.41607,-0.12897 -3.76907,-0.38657 -1.32066,-0.28993 -2.64167,-0.72465 -3.96234,-1.30451 -1.28834,-0.57985 -2.52853,-1.32066 -3.72057,-2.22277 -1.19204,-0.9341 -2.25511,-2.04566 -3.18921,-3.334 -0.90177,-1.32101 -1.62676,-2.83497 -2.17429,-4.54221 -0.54752,-1.73956 -0.82163,-3.68824 -0.82163,-5.8467 v -34.01718 c 0,-1.15971 0.12897,-2.3999 0.38657,-3.7209 0.28993,-1.35266 0.72499,-2.67367 1.30485,-3.96201 0.57985,-1.32067 1.33683,-2.57703 2.27093,-3.76906 0.9341,-1.1917 2.04566,-2.23894 3.334,-3.14072 1.32101,-0.9341 2.83496,-1.67525 4.5422,-2.22278 1.70724,-0.54753 3.64009,-0.82129 5.79856,-0.82129 h 45.32401 v 12.5632 h -45.32401 c -1.64293,0 -2.89928,0.43472 -3.76907,1.3045 -0.86978,0.86979 -1.30484,2.15813 -1.30484,3.86571 v 33.92053 c 0,1.61059 0.43506,2.86695 1.30484,3.76906 0.90178,0.86978 2.15813,1.3045 3.76907,1.3045 h 45.32401 z"
     fill="#00353d"
     id="path173" />
  <path
     style="stroke-width:0.336734"
     d="m 669.25398,310.00335 h -17.00876 v 17.00876 h -11.25869 v -17.00876 h -17.05691 v -11.30684 h 17.05691 v -17.00842 h 11.25869 v 17.00842 h 17.00876 z"
     fill="#00353d"
     id="path175" />
  <path
     style="stroke-width:0.336734"
     d="m 722.59933,310.00335 h -17.00875 v 17.00876 h -11.2587 v -17.00876 h -17.0569 v -11.30684 h 17.0569 v -17.00842 h 11.2587 v 17.00842 h 17.00875 z"
     fill="#00353d"
     id="path177" />
  <path
     style="stroke-width:0.336734"
     d="m 788.89546,310.67985 h -44.69803 v -12.65984 h 44.69803 z m 5.65376,28.3156 h -45.32436 c -1.74091,0 -3.64009,-0.30609 -5.70427,-0.91793 -2.06081,-0.61219 -3.97682,-1.61094 -5.74804,-2.99592 -1.74091,-1.41732 -3.20604,-3.23736 -4.39808,-5.46014 -1.15971,-2.25511 -1.73956,-5.00925 -1.73956,-8.26277 v -45.32402 c 0,-0.86978 0.16129,-1.69141 0.48321,-2.46455 0.32225,-0.77314 0.75698,-1.44964 1.30484,-2.0295 0.57986,-0.57985 1.25636,-1.03074 2.0295,-1.35266 0.77448,-0.32225 1.60958,-0.48321 2.51203,-0.48321 h 56.58473 v 12.5632 h -50.35179 v 39.09074 c 0,1.64292 0.43439,2.89927 1.30653,3.76906 0.86877,0.86978 2.14162,1.3045 3.81519,1.3045 h 45.23007 z"
     fill="#00a3b9"
     id="path179" />
  <path
     style="stroke-width:0.336734"
     d="m 838.37511,294.44457 21.16371,-24.73982 h 17.15321 l -29.8144,34.74182 29.62247,34.54888 h -17.05893 l -21.06606,-24.54654 -20.97178,24.54654 h -17.10607 l 29.57196,-34.54888 -29.66961,-34.74182 h 17.01179 z"
     fill="#00a3b9"
     id="path181" />
  <path
     d="M 412.2923,251.53056 H 858.51852"
     stroke="#000000"
     stroke-width="1.90379"
     id="path183" />
  <text
     xml:space="preserve"
     style="font-size:89.7958px;line-height:125%;font-family:'Arial Rounded MT Bold';-inkscape-font-specification:'Arial Rounded MT Bold, ';letter-spacing:0px;word-spacing:0px;writing-mode:lr-tb;fill:#000000;stroke:#000000;stroke-width:0.336734px;stroke-linecap:butt;stroke-linejoin:miter;stroke-opacity:1"
     x="641.63818"
     y="491.80618"
     id="text202"
     transform="skewY(0.4653238)"><tspan
       sodipodi:role="line"
       x="641.63824"
       y="491.80618"
       style="font-style:normal;font-variant:normal;font-weight:normal;font-stretch:normal;font-size:89.7958px;font-family:'Times New Roman';-inkscape-font-specification:'Times New Roman, Normal';font-variant-ligatures:normal;font-variant-caps:normal;font-variant-numeric:normal;font-variant-east-asian:normal;text-align:center;text-anchor:middle;stroke-width:0.336734px"
       id="tspan206">Digital Model Railroad Control</tspan><tspan
       sodipodi:role="line"
       x="641.63818"
       y="605.26654"
       style="font-style:normal;font-variant:normal;font-weight:normal;font-stretch:normal;font-size:89.7958px;font-family:'Times New Roman';-inkscape-font-specification:'Times New Roman, Normal';font-variant-ligatures:normal;font-variant-caps:normal;font-variant-numeric:normal;font-variant-east-asian:normal;text-align:center;text-anchor:middle;stroke-width:0.336734px"
       id="tspan210">For Everyone</tspan></text>
</svg>
