<?xml version="1.0" encoding="UTF-8" standalone="no"?>
<svg
   xmlns:dc="http://purl.org/dc/elements/1.1/"
   xmlns:cc="http://creativecommons.org/ns#"
   xmlns:rdf="http://www.w3.org/1999/02/22-rdf-syntax-ns#"
   xmlns:svg="http://www.w3.org/2000/svg"
   xmlns="http://www.w3.org/2000/svg"
   xmlns:sodipodi="http://sodipodi.sourceforge.net/DTD/sodipodi-0.dtd"
   xmlns:inkscape="http://www.inkscape.org/namespaces/inkscape"
   inkscape:version="1.0 (4035a4fb49, 2020-05-01)"
   sodipodi:docname="EX_LOGO_Last.svg"
   id="svg40"
   version="1.1"
   fill="none"
   viewBox="0 0 1421 921"
   height="921"
   width="1421">
  <metadata
     id="metadata44">
    <rdf:RDF>
      <cc:Work
         rdf:about="">
        <dc:format>image/svg+xml</dc:format>
        <dc:type
           rdf:resource="http://purl.org/dc/dcmitype/StillImage" />
        <dc:title></dc:title>
      </cc:Work>
    </rdf:RDF>
  </metadata>
  <sodipodi:namedview
     inkscape:current-layer="svg40"
     inkscape:window-maximized="1"
     inkscape:window-y="-8"
     inkscape:window-x="-8"
     inkscape:cy="475.52822"
     inkscape:cx="710.235"
     inkscape:zoom="0.55052201"
     showgrid="false"
     id="namedview42"
     inkscape:window-height="745"
     inkscape:window-width="1366"
     inkscape:pageshadow="2"
     inkscape:pageopacity="0"
     guidetolerance="10"
     gridtolerance="10"
     objecttolerance="10"
     borderopacity="1"
     bordercolor="#666666"
     pagecolor="#ffffff"
     inkscape:document-rotation="0" />
  <mask
     height="599"
     width="599"
     y="21"
     x="406"
     maskUnits="userSpaceOnUse"
     mask-type="alpha"
     id="mask0">
    <rect
       id="rect4"
       fill="white"
       transform="rotate(-45 406.51 320.148)"
       rx="56.5371"
       height="422.702"
       width="422.702"
       y="320.148"
       x="406.51" />
  </mask>
  <g
     id="g1006">
    <rect
       style="stroke:#000000;stroke-opacity:1"
       x="396.724"
       y="319.896"
       width="437.066"
       height="437.066"
       rx="63.7189"
       transform="rotate(-45 396.724 319.896)"
       fill="white"
       stroke="#00353D"
       stroke-width="14.3637"
       stroke-miterlimit="16"
       stroke-linejoin="round"
       id="rect2" />
    <g
       mask="url(#mask0)"
       id="g15">
      <path
         d="M558.03 10.9856C565.335 17.3446 869.458 271.21 577.257 498.402L672.11 585.564L722.1 597.1L783.822 554.973C1014.79 279.491 624.481 0.449243 615.806 -4.43481L558.03 10.9856Z"
         fill="url(#paint0_linear)"
         id="path7" />
      <path
         d="M579.281 51.6391L670.926 12.9067L704.795 38.921L603.188 81.7001L619.791 110.027L731.358 64.9353L761.907 94.4182L631.744 141.822L645.026 171.305L791.791 125.635L817.026 159.743L658.972 204.835L661.628 244.723L848.239 204.835L888.749 262.644L665.613 289.236L643.698 336.64L906.679 317.563V389.247L621.783 385.778L597.875 426.823L882.108 475.383L837.613 558.629L558.03 475.383"
         stroke="#00353D"
         stroke-width="10.2598"
         id="path9"
         style="stroke:#000000;stroke-opacity:1" />
      <path
         d="M570.647 491.57C862.849 264.379 565.999 11.7512 558.694 5.39221M616.47 -10.0282C625.145 -5.14414 1015.46 273.898 784.486 549.38L736.2 597.1"
         stroke="white"
         stroke-width="20.5195"
         id="path11" />
      <path
         d="M570.647 491.57C862.849 264.379 565.999 11.7512 558.694 5.39221M616.47 -10.0282C625.145 -5.14414 1015.46 273.898 784.486 549.38L740.045 594.537"
         stroke="#00353D"
         stroke-width="10.2598"
         id="path13"
         style="stroke:#000000;stroke-opacity:1" />
    </g>
  </g>
  <path
     style="fill:#000000"
     id="path17"
     fill="#00353D"
     d="M205.63 834.902C205.63 847.434 203.43 858.962 199.029 869.485C194.724 880.008 188.745 889.096 181.092 896.749C173.439 904.307 164.351 910.238 153.828 914.543C143.305 918.848 131.873 921 119.532 921H18.798C16.1194 921 13.6321 920.522 11.3362 919.565C9.04026 918.609 7.03131 917.317 5.30936 915.691C3.68307 913.969 2.3916 911.96 1.43496 909.664C0.478321 907.368 0 904.881 0 902.202V734.025C0 731.442 0.478321 729.002 1.43496 726.706C2.3916 724.41 3.68307 722.401 5.30936 720.679C7.03131 718.957 9.04026 717.618 11.3362 716.662C13.6321 715.705 16.1194 715.227 18.798 715.227H119.532C131.873 715.227 143.305 717.379 153.828 721.684C164.351 725.989 173.439 731.968 181.092 739.621C188.745 747.178 194.724 756.266 199.029 766.885C203.43 777.408 205.63 788.888 205.63 801.324V834.902ZM168.321 801.324C168.321 794.054 167.125 787.405 164.734 781.378C162.438 775.351 159.137 770.233 154.832 766.024C150.528 761.719 145.362 758.419 139.335 756.123C133.404 753.731 126.803 752.536 119.532 752.536H37.309V883.691H119.532C126.803 883.691 133.404 882.543 139.335 880.247C145.362 877.856 150.528 874.555 154.832 870.346C159.137 866.041 162.438 860.923 164.734 854.992C167.125 848.965 168.321 842.269 168.321 834.902V801.324Z" />
  <path
     style="fill:#000000"
     id="path19"
     fill="#00353D"
     d="M426.471 921H291.871C288.427 921 284.696 920.617 280.679 919.852C276.756 918.991 272.834 917.7 268.912 915.978C265.085 914.256 261.402 912.056 257.863 909.377C254.323 906.603 251.166 903.302 248.392 899.476C245.713 895.553 243.561 891.057 241.935 885.987C240.308 880.821 239.495 875.034 239.495 868.624V767.603C239.495 764.159 239.878 760.476 240.643 756.553C241.504 752.536 242.796 748.613 244.518 744.787C246.24 740.865 248.488 737.134 251.262 733.594C254.036 730.055 257.337 726.945 261.163 724.267C265.085 721.493 269.582 719.292 274.652 717.666C279.722 716.04 285.462 715.227 291.871 715.227H426.471V752.536H291.871C286.992 752.536 283.262 753.827 280.679 756.41C278.096 758.993 276.804 762.819 276.804 767.89V868.624C276.804 873.407 278.096 877.138 280.679 879.817C283.357 882.4 287.088 883.691 291.871 883.691H426.471V921Z" />
  <path
     style="fill:#000000"
     id="path21"
     fill="#00353D"
     d="M644.298 921H509.699C506.255 921 502.524 920.617 498.506 919.852C494.584 918.991 490.661 917.7 486.739 915.978C482.913 914.256 479.23 912.056 475.69 909.377C472.15 906.603 468.993 903.302 466.219 899.476C463.541 895.553 461.388 891.057 459.762 885.987C458.136 880.821 457.322 875.034 457.322 868.624V767.603C457.322 764.159 457.705 760.476 458.47 756.553C459.331 752.536 460.623 748.613 462.345 744.787C464.067 740.865 466.315 737.134 469.089 733.594C471.863 730.055 475.164 726.945 478.99 724.267C482.913 721.493 487.409 719.292 492.479 717.666C497.549 716.04 503.289 715.227 509.699 715.227H644.298V752.536H509.699C504.82 752.536 501.089 753.827 498.506 756.41C495.923 758.993 494.631 762.819 494.631 767.89V868.624C494.631 873.407 495.923 877.138 498.506 879.817C501.184 882.4 504.915 883.691 509.699 883.691H644.298V921Z" />
  <path
     style="fill:#000000"
     id="path23"
     fill="#00353D"
     d="M804.44 834.902H753.929V885.413H720.494V834.902H669.84V801.324H720.494V750.814H753.929V801.324H804.44V834.902Z" />
  <path
     style="fill:#000000"
     id="path25"
     fill="#00353D"
     d="M962.86 834.902H912.349V885.413H878.914V834.902H828.26V801.324H878.914V750.814H912.349V801.324H962.86V834.902Z" />
  <path
     id="path27"
     fill="#00A3B9"
     d="M1159.74 836.911H1027V799.315H1159.74V836.911ZM1176.53 921H1041.93C1036.76 921 1031.12 920.091 1024.99 918.274C1018.87 916.456 1013.18 913.49 1007.92 909.377C1002.75 905.168 998.399 899.763 994.859 893.162C991.415 886.465 989.693 878.286 989.693 868.624V734.025C989.693 731.442 990.172 729.002 991.128 726.706C992.085 724.41 993.376 722.401 995.003 720.679C996.725 718.957 998.734 717.618 1001.03 716.662C1003.33 715.705 1005.81 715.227 1008.49 715.227H1176.53V752.536H1027V868.624C1027 873.503 1028.29 877.234 1030.88 879.817C1033.46 882.4 1037.24 883.691 1042.21 883.691H1176.53V921Z" />
  <path
     id="path29"
     fill="#00A3B9"
     d="M1306.68 788.697L1369.53 715.227H1420.47L1331.93 818.4L1419.9 921H1369.24L1306.68 848.104L1244.4 921H1193.6L1281.42 818.4L1193.31 715.227H1243.83L1306.68 788.697Z" />
  <path
     style="fill:#000000"
     id="path31"
     stroke-width="5.65371"
     stroke="black"
     d="M41.3394 661.255L1366.5 661.255" />
  <defs
     id="defs38">
    <linearGradient
       gradientUnits="userSpaceOnUse"
       y2="597.1"
       x2="707.416"
       y1="-4.43481"
       x1="707.416"
       id="paint0_linear">
      <stop
         id="stop33"
         stop-color="#D3D3D3" />
      <stop
         id="stop35"
         stop-color="white"
         offset="1" />
    </linearGradient>
  </defs>
</svg>
